Coordinates
version=1
nRows=29
nColumns=24
inDegrees=yes

Units are S.I. units (second, meters, Newtons, ...)
Angles are in degrees.

endheader
time	pelvis_tilt	pelvis_list	pelvis_rotation	pelvis_tx	pelvis_ty	pelvis_tz	hip_flexion_r	hip_adduction_r	hip_rotation_r	knee_angle_r	ankle_angle_r	subtalar_angle_r	mtp_angle_r	hip_flexion_l	hip_adduction_l	hip_rotation_l	knee_angle_l	ankle_angle_l	subtalar_angle_l	mtp_angle_l	lumbar_extension	lumbar_bending	lumbar_rotation
      4.06500000	     -7.85307364	     -7.25727293	      3.10872212	     -0.78204885	     -0.01803805	      0.60641306	     16.02528412	      9.97106766	    -11.79547493	    -15.53995463	      1.69720061	     -5.38576473	      5.66823810	     28.68662586	    -14.78724945	     -9.20807057	    -67.64744071	     -8.74844945	     18.25456028	     18.64060599	      3.86770822	      9.73398511	      0.98661314
      4.07000000	     -7.83728236	     -6.98306220	      2.66095604	     -0.77586657	     -0.01702444	      0.60710608	     15.25125109	      9.91817206	    -11.24560033	    -15.01821615	      1.80394321	     -5.29875857	      5.60658278	     29.30196495	    -14.54586121	     -9.60660809	    -67.11412720	     -8.44843992	     18.62426077	     18.61939569	      3.75236632	      9.51453287	      1.60048317
      4.07500000	     -7.80499700	     -6.70715871	      2.19665716	     -0.76967515	     -0.01606365	      0.60780270	     14.45593126	      9.85722650	    -10.61915332	    -14.49193430	      1.91869979	     -5.23731771	      5.52293177	     29.87076610	    -14.31881343	    -10.04941203	    -66.51712654	     -8.14638204	     18.82977404	     18.45934543	      3.62046465	      9.29786895	      2.20967691
      4.08000000	     -7.76281667	     -6.44086246	      1.72062381	     -0.76350703	     -0.01516779	      0.60853778	     13.66199560	      9.79786693	     -9.98810448	    -13.98035455	      2.02396313	     -5.20628527	      5.41215168	     30.40811135	    -14.11531674	    -10.50940873	    -65.86102598	     -7.83414756	     18.93012136	     18.15080608	      3.47910009	      9.08095580	      2.82592865
      4.08500000	     -7.72716251	     -6.18494215	      1.25005484	     -0.75733945	     -0.01435864	      0.60924771	     12.88295372	      9.72992194	     -9.37013004	    -13.47764322	      2.13170647	     -5.16579469	      5.29504737	     30.93578568	    -13.92316488	    -10.96896975	    -65.14954886	     -7.50943310	     18.94401327	     17.71280028	      3.35212186	      8.87873448	      3.42231060
      4.09000000	     -7.70081814	     -5.94110435	      0.78594783	     -0.75117274	     -0.01363445	      0.60995752	     12.12390561	      9.65590057	     -8.78198980	    -12.98713529	      2.24426968	     -5.10728592	      5.18429848	     31.45367085	    -13.74724931	    -11.42948522	    -64.37453714	     -7.18186316	     18.86301265	     17.16855465	      3.24229466	      8.68392655	      3.99791590
      4.09500000	     -7.68004194	     -5.70650253	      0.32282336	     -0.74501576	     -0.01299707	      0.61066885	     11.38161432	      9.57590666	     -8.21482966	    -12.50965139	      2.36334372	     -5.03448931	      5.08258684	     31.95663503	    -13.58630690	    -11.89420122	    -63.54197957	     -6.85177899	     18.69895462	     16.52227193	      3.14378259	      8.49447976	      4.55862626
      4.10000000	     -7.66724935	     -5.48307566	     -0.13513733	     -0.73884787	     -0.01244883	      0.61134008	     10.65797264	      9.48862179	     -7.67061189	    -12.04604982	      2.50154631	     -4.94841215	      4.99776723	     32.44379929	    -13.43792918	    -12.36247692	    -62.64615341	     -6.52903130	     18.45926666	     15.79549835	      3.06562413	      8.32580404	      5.09561068
      4.10500000	     -7.61269540	     -5.30490116	     -0.58763610	     -0.73265662	     -0.01198522	      0.61210920	      9.87584379	      9.44970313	     -7.07334989	    -11.55789438	      2.62162626	     -4.90953562	      4.84172463	     32.87161239	    -13.35526565	    -12.79237117	    -61.74896955	     -6.02344884	     18.45176696	     14.51665936	      2.94321957	      8.17651048	      5.61652203
      4.11000000	     -7.64656027	     -5.08995407	     -1.02174004	     -0.72654760	     -0.01164974	      0.61276543	      9.23753607	      9.33593210	     -6.61507081	    -11.13807287	      2.78873611	     -4.76350670	      4.81909299	     33.37256027	    -13.20220405	    -13.22848259	    -60.72632487	     -5.74089445	     18.07079766	     13.72385937	      2.91813863	      7.99940199	      6.14746486
      4.11500000	     -7.64567974	     -4.89223576	     -1.45997899	     -0.72038751	     -0.01135914	      0.61342764	      8.55416326	      9.23130501	     -6.13749457	    -10.70569840	      2.94663197	     -4.63096995	      4.79998627	     33.79480419	    -13.08922476	    -13.69696501	    -59.64619134	     -5.40096330	     17.76486549	     12.77032811	      2.86361973	      7.84196569	      6.64211079
      4.12000000	     -7.63203436	     -4.76333548	     -1.86557091	     -0.71423580	     -0.01117365	      0.61404018	      7.86069847	      9.18500844	     -5.72025142	    -10.27089636	      3.06989769	     -4.52230673	      4.77886547	     34.20701139	    -13.03849895	    -14.13666971	    -58.56089057	     -4.98893734	     17.46397503	     11.47380664	      2.80078123	      7.75526021	      7.06423336
      4.12500000	     -7.67767486	     -4.57284912	     -2.27948680	     -0.70808554	     -0.01110727	      0.61466094	      7.26158135	      9.05978032	     -5.30798052	     -9.89001721	      3.27746209	     -4.36059592	      4.81839066	     34.61995898	    -12.91816513	    -14.58859223	    -57.32573750	     -4.68841679	     17.13272919	     10.70291770	      2.80877859	      7.60046573	      7.50437411
      4.13000000	     -7.68029155	     -4.43588195	     -2.65114660	     -0.70194852	     -0.01107587	      0.61522077	      6.61055262	      8.97670061	     -4.93794621	     -9.48802812	      3.43229983	     -4.23172217	      4.85000557	     34.98459140	    -12.83500310	    -15.01015655	    -56.07010620	     -4.36628417	     16.85205938	      9.61049671	      2.76935381	      7.49774845	      7.90236140
      4.13500000	     -7.77134215	     -4.26620685	     -3.00774996	     -0.69580924	     -0.01119703	      0.61573459	      6.09162570	      8.84756411	     -4.62595404	     -9.14897424	      3.62544428	     -4.09554822	      4.88823887	     35.39837930	    -12.69160224	    -15.40648063	    -54.67367114	     -4.17357975	     16.51249300	      9.09554754	      2.83878050	      7.36509157	      8.27260595
      4.14000000	     -7.73714440	     -4.14616354	     -3.39348122	     -0.68965042	     -0.01131239	      0.61630453	      5.41712936	      8.76265389	     -4.23674938	     -8.78183757	      3.84754023	     -3.91862090	      4.95042926	     35.64085755	    -12.63698728	    -15.84528992	    -53.27397556	     -3.83179352	     16.45777621	      8.17127755	      2.76214658	      7.27751829	      8.70150653
      4.14500000	     -7.79731148	     -4.02521513	     -3.71920322	     -0.68350269	     -0.01158999	      0.61676339	      4.86842726	      8.66446108	     -3.92534455	     -8.44655932	      4.06605653	     -3.77506589	      4.99782422	     35.97519409	    -12.52437536	    -16.21397880	    -51.78310218	     -3.61408017	     16.31888885	      7.50949383	      2.80105179	      7.18986813	      9.04236668
      4.15000000	     -7.89525930	     -3.90710368	     -3.99177798	     -0.67731108	     -0.01199383	      0.61715451	      4.37645440	      8.56023732	     -3.66748099	     -8.14216643	      4.30181641	     -3.66475510	      5.03134919	     36.32091742	    -12.36942895	    -16.51029815	    -50.19626962	     -3.42441596	     16.29346999	      7.12662604	      2.89628219	      7.10000599	      9.25865168
      4.15500000	     -7.85584030	     -3.82799003	     -4.32561787	     -0.67115112	     -0.01233581	      0.61757454	      3.72980435	      8.48230066	     -3.34336305	     -7.83188549	      4.54134396	     -3.47780383	      5.08242586	     36.47656055	    -12.29470589	    -16.88692222	    -48.59687918	     -3.15535686	     16.43790244	      6.46307879	      2.81645514	      7.05584832	      9.63563043
      4.16000000	     -7.96798443	     -3.74982238	     -4.56440103	     -0.66494468	     -0.01291285	      0.61789309	      3.27522281	      8.40606531	     -3.13392451	     -7.57020401	      4.77685163	     -3.37111143	      5.11186210	     36.79136398	    -12.14433273	    -17.10955426	    -46.90140342	     -3.00092990	     16.68631226	      6.19595904	      2.92853626	      7.00852835	      9.81068697
      4.16500000	     -7.98619898	     -3.66223049	     -4.85453554	     -0.65868648	     -0.01345035	      0.61824404	      2.70701401	      8.30591015	     -2.86412269	     -7.29354866	      5.04088357	     -3.19643597	      5.15373715	     36.94950168	    -12.01891502	    -17.44168307	    -45.16391180	     -2.83778924	     17.01641719	      5.86468250	      2.93711473	      6.95130810	     10.13157206
      4.17000000	     -7.98696600	     -3.60374646	     -5.11584523	     -0.65245936	     -0.01406278	      0.61850789	      2.13991786	      8.22307429	     -2.60507934	     -7.05647126	      5.31735088	     -3.02388537	      5.19424105	     37.07588399	    -11.87442734	    -17.66347698	    -43.38169120	     -2.65186422	     17.47322670	      5.55800734	      2.91518216	      6.92407438	     10.39578785
      4.17500000	     -8.01611129	     -3.55642159	     -5.34377887	     -0.64618268	     -0.01479398	      0.61871814	      1.60974836	      8.14708043	     -2.38184535	     -6.83563889	      5.60730182	     -2.86631759	      5.23218557	     37.22001944	    -11.71312199	    -17.82921818	    -41.56652033	     -2.48627429	     18.04386298	      5.32509479	      2.93741197	      6.90557152	     10.61335411
      4.18000000	     -8.03136429	     -3.51276788	     -5.56782464	     -0.63990316	     -0.01558876	      0.61889282	      1.08174459	      8.06576894	     -2.15776548	     -6.65059351	      5.92552766	     -2.70150228	      5.27492535	     37.32640137	    -11.53690938	    -17.94683965	    -39.71740813	     -2.32055534	     18.69813584	      5.11844697	      2.93763672	      6.89316493	     10.82616525
      4.18500000	     -8.12349199	     -3.49163141	     -5.72733763	     -0.63355393	     -0.01655936	      0.61900968	      0.63930683	      8.01365992	     -1.99036287	     -6.47769409	      6.23463586	     -2.59665289	      5.30995589	     37.52229235	    -11.34315144	    -17.96011173	    -37.85974516	     -2.19760416	     19.44373902	      4.99560988	      3.04189031	      6.89654625	     10.92487670
      4.19000000	     -8.08829734	     -3.41827037	     -5.95839534	     -0.62718099	     -0.01738521	      0.61913821	      0.06488755	      7.87835513	     -1.75224539	     -6.31190433	      6.56136424	     -2.37366338	      5.35985501	     37.51213772	    -11.12387770	    -18.05478833	    -35.95554131	     -2.06479329	     20.23314946	      4.74951396	      2.99400988	      6.84875734	     11.19963910
      4.19500000	     -8.16958162	     -3.38892296	     -6.10084232	     -0.62077673	     -0.01848453	      0.61918790	     -0.36433113	      7.80503622	     -1.58596748	     -6.19439097	      6.92088394	     -2.27683038	      5.39962728	     37.65629169	    -10.88818170	    -17.95555063	    -34.07272885	     -1.92956428	     21.04693461	      4.57852830	      3.09348684	      6.84008644	     11.28249799
      4.20000000	     -8.07363350	     -3.29165257	     -6.32730329	     -0.61437556	     -0.01934899	      0.61927714	     -0.96988400	      7.62345923	     -1.36666069	     -6.09431632	      7.29923201	     -2.01276990	      5.45261342	     37.53274046	    -10.61858696	    -17.94416094	    -32.15611877	     -1.75389586	     21.87515324	      4.09410533	      2.97910194	      6.75355301	     11.56544800
      4.20500000	     -8.06267785	     -3.19798746	     -6.48273548	     -0.60791972	     -0.02038643	      0.61928412	     -1.47154978	      7.45324720	     -1.20688756	     -6.02049556	      7.69145217	     -1.80855806	      5.49293953	     37.51146797	    -10.30931209	    -17.79538379	    -30.27141875	     -1.56753958	     22.69603672	      3.47137219	      2.97428239	      6.66979266	     11.72187648
